# xmcd
#
# Track frame offsets: 
#        150
#        12252
#        25410
#        36027
#        49502
#        61982
#        73605
#        88292
#        99737
#        111917
#        124517
#        134330
#        157705
#        177377
#        190765
#        201237
#        216755
#        236843
#
# Disc length: 3491 seconds
#
# Revision: 1
# Processed by: cddbd v1.5.2PL0 Copyright (c) Steve Scherf et al.
# Submitted via: ExactAudioCopy v0.99pb4
#
DISCID=fb0da112
DTITLE=Various Artist - Blues for 2
DYEAR=1900
DGENRE=Blues
TTITLE0=JOHN LEE HOOKER - I'm In The Mood
TTITLE1=MUDDY WATERS - Mannish Boy
TTITLE2=HOWLIN' WOLF - Who's Been Talking
TTITLE3=ELMORE JAMES - Dust My Broom
TTITLE4=BO DIDDLEY - Road Runner
TTITLE5=JOHN MAYALL - Lost And Gone
TTITLE6=MUDDY WATERS - Baby Please Don't Go
TTITLE7=JOHN LEE HOOKER - Boogie Chillen 2
TTITLE8=HOWLIN' WOLF - Spoonful
TTITLE9=ELMORE JAMES - Standing At The Crossroads
TTITLE10=ERIC CLAPTON and JIMMY PAGE - Tribute To Elmor
TTITLE11=B.B.KING - How Blue Can You Get
TTITLE12=TOWNES VAN ZANDT - Pancho And Lefty
TTITLE13=TONY JOE WHITE - You Got Me Running
TTITLE14=RAY CHARLES - I'm Movin' On
TTITLE15=BIG JOE WILLIAMS - Nobody Knows You When You're Down And Out
TTITLE16=ETTA JAMES - I'd Rather Go Blind
TTITLE17=IKE and TINA TURNER - All I Can Do Is Cry
EXTD=
EXTT0=
EXTT1=
EXTT2=
EXTT3=
EXTT4=
EXTT5=
EXTT6=
EXTT7=
EXTT8=
EXTT9=
EXTT10=
EXTT11=
EXTT12=
EXTT13=
EXTT14=
EXTT15=
EXTT16=
EXTT17=
PLAYORDER=
